<?xml version="1.0" encoding="utf-8"?>
<!-- Generator: Adobe Illustrator 24.1.1, SVG Export Plug-In . SVG Version: 6.00 Build 0)  -->
<svg version="1.1" id="Capa_1" xmlns="http://www.w3.org/2000/svg" xmlns:xlink="http://www.w3.org/1999/xlink" x="0px" y="0px"
	 viewBox="0 0 264.6 264.6" style="enable-background:new 0 0 264.6 264.6;" xml:space="preserve">
<style type="text/css">
	.st0{fill:#FFFFFF;}
</style>
<g>
	<path class="st0" d="M247.3,100.3c20.2,14.9,23.1,48.4,6.4,66.3c-2,2.2-2.8,1.6-4.1-0.7c-6.7-11.7-16.3-18.8-29.1-21
		c-2.1-0.3-4.9-1.5-5.3,2c-0.4,3.2,2.5,2.9,4.4,3.1c15.4,2.1,28.8,16.5,31.1,33.6c2.6,18.8-5.8,36.7-20.4,43.9
		c-1.2-1.3-0.4-3-0.5-4.4c-0.1-12.8-5.3-23.1-13.8-31.6c-1.4-1.3-2.9-2.7-4.5-0.6c-1.4,1.8-0.1,3.2,1.2,4.4
		c20.4,19.5,15.1,51.2-11.5,64.4c-18.6,9.2-42.9,4.9-56.7-10c-6.3-6.8-9.7-14.9-9.6-24.6c0.1-13.9,0.1-27.8,0-41.7
		c0-3.3,0.8-3.9,3.8-3.3c10.3,2.1,17.9,10,20.4,21.6c0.5,2.2-0.4,6.7,3.5,5.6c3.2-0.9,1.6-4.6,1.1-7c-2.8-14-12.6-23.5-26.3-25.4
		c-1.8-0.3-2.5-0.8-2.5-2.8c0.1-14.7,0.1-29.4,0-44.1c0-3.2,1.5-2.1,3.1-1.7c11.5,3,21.9,0.8,30.8-7.9c0.6-0.6,1.3-1.3,1.8-2
		c1.1-1.3,1.5-2.8,0.1-4.2c-1.5-1.5-2.7-0.5-3.8,0.7c-4.7,5.5-10.5,8.5-17.3,9.4c-1,0.1-2.1,0.2-3.1,0.2
		c-10.4-0.3-11.7-1.6-11.7-12.5c0-21-0.2-42,0.1-63c0.4-32.8,31.9-55.4,60.4-43.7c17.9,7.4,25.9,26.6,26.4,42.8c0.1,4.3-2.1,2.6-4,2
		c-19.5-6.2-39.9,1.6-50.7,19.5c-4.9,8.2-7.1,17.3-6.4,27c0.1,1.2,0.3,2.5,0.6,3.7c0.4,1.4,1.4,2,2.7,1.7c1.2-0.2,1.8-1,1.8-2.3
		c0-1-0.1-1.9-0.1-2.8c-1.5-21.6,13-40.9,32.7-43.4c21.9-2.8,39.9,10.9,43.6,32.9c2.1,12-0.3,22.8-6.6,32.9
		c-1.1,1.6-2.9,3.5-0.7,5.2c2.5,1.9,3.6-0.8,4.8-2.5C243.7,114.3,245.8,107.6,247.3,100.3L247.3,100.3z M47.1,193.1
		c1.5-1.6,3.3-4.9,5.7-2.3c2.6,2.8-0.9,4.3-2.3,5.9c-14.1,15.2-14.7,36.6-1.2,52.3c18,21,54.6,20.6,72.2-0.8
		c4.8-5.8,8.2-12.5,8.2-20.4c0.1-34,0.1-67.9,0.2-101.9c0-3.5-1.4-3.5-3.8-2.7c-6.5,2.3-10.8,6.8-12.4,14.1c-0.4,2-0.8,4.4-3.5,3.6
		c-2.4-0.8-1.7-3-1.3-4.8c2.5-9.7,8.1-16,17.4-18c2.9-0.6,3.7-1.9,3.7-4.9c-0.1-20.1-0.2-40.1,0-60.2c0.1-11.4-3.2-21.4-9.7-30.2
		C108.4,6.4,88.5,0.7,71,8.6c-17.7,7.9-27.6,26.2-25.3,46.8c2.1,18.6,17.3,34.2,35.7,37.3c2.1,0.3,6.2-0.8,5.6,3.2
		c-0.5,4.1-4.4,2.3-6.6,1.8c-19.9-4-33.3-16-38.8-37.2c-1.1-4.3-2.3-3.3-4.4-1.4c-12.1,10.4-17,23.8-15,40.1
		c0.8,6.7,3.3,12.7,6.9,18.2c1.1,1.6,2.8,3.5,0.5,5.2c-2.3,1.7-3.3-0.8-4.5-2.4c-0.8-1.1-1.5-2.3-2.2-3.6c-2.9-5-4.3-10.6-5.7-16.3
		c-19.3,13.3-24,46.4-5.9,66.6c2.4,2.7,2.8,0,3.6-1.4c7.1-11.9,17.1-18.8,30.1-21c1.8-0.3,3.8-0.6,4.3,2c0.5,2.7-1.5,3-3.3,3.3
		c-19.5,3.7-31.3,17.8-32.8,39c-1.1,15.7,8.3,32.8,21.6,38.7C33.8,213.8,38.3,202.5,47.1,193.1L47.1,193.1z M174.6,182.1
		c-1.6,1-4,1.6-2.7,4.3c1.3,2.7,3.2,1.3,4.9,0.3c13.7-7.7,21.7-26.4,18.1-42.5c-0.4-1.8-0.7-4.1-3.2-3.6c-2.5,0.5-2.1,2.7-1.7,4.5
		c0.6,2.3,0.6,4.7,0.7,7.1C190.3,165.3,185.4,175.5,174.6,182.1L174.6,182.1z M76.1,182.9c1.2,1.7,2.5,3.7,4.6,2
		c2-1.6,0.5-3.3-0.5-4.9c-10.6-16.3-10.6-34,0-50.2c1-1.5,2.6-3.2,0.6-4.9c-2.1-1.8-3.5,0.2-4.6,1.9c-5.7,8.2-8.7,17.4-8.6,27.3
		C67.3,165.1,70.2,174.5,76.1,182.9L76.1,182.9z"/>
</g>
</svg>
