<?xml version="1.0" encoding="utf-8"?>
<!-- Generator: Adobe Illustrator 24.1.1, SVG Export Plug-In . SVG Version: 6.00 Build 0)  -->
<svg version="1.1" id="Capa_1" xmlns="http://www.w3.org/2000/svg" xmlns:xlink="http://www.w3.org/1999/xlink" x="0px" y="0px"
	 viewBox="0 0 264.6 264.6" style="enable-background:new 0 0 264.6 264.6;" xml:space="preserve">
<style type="text/css">
	.st0{fill-rule:evenodd;clip-rule:evenodd;fill:#FFFFFF;}
	.st1{fill:#FFFFFF;}
</style>
<g id="layer1" transform="translate(-157.0337,-25.948529)">
	<g id="g2476" transform="matrix(1.1858,0,0,1.1858,4.61306,-328.857)">
		<g id="g1988" transform="translate(3.5356,3.53494)">
			<path id="path26" class="st0" d="M125,389.7c0,51.4,35.9,94,87.9,94c51.8,0,87.6-42.6,87.6-94c0-54.6-35.2-94-87.6-94
				C160.2,295.7,125,335.1,125,389.7 M158.8,389.7c0-34.1,20-67.2,54.1-67.2c33.8,0,53.8,33.1,53.8,67.2c0,32-16.5,67.2-53.8,67.2
				C175.4,456.9,158.8,421.7,158.8,389.7"/>
			<path id="path28" class="st1" d="M348.1,518.8v-12.5H317c12.5-12.8,28.7-28.2,28.7-45.1c0-15.6-9.4-23.2-23.9-23.2
				c-7.8,0-15.8,2.1-22.7,5.7l1.2,13.2c5-3.4,11.2-6.4,17.6-6.4c6.2,0,12.5,3.4,12.5,10.7c0,14.6-25.9,37.1-33,44.3v13.3
				L348.1,518.8"/>
		</g>
	</g>
</g>
</svg>
