<?xml version="1.0" encoding="utf-8"?>
<!-- Generator: Adobe Illustrator 24.1.1, SVG Export Plug-In . SVG Version: 6.00 Build 0)  -->
<svg version="1.1" id="Capa_1" xmlns="http://www.w3.org/2000/svg" xmlns:xlink="http://www.w3.org/1999/xlink" x="0px" y="0px"
	 viewBox="0 0 264.6 264.6" style="enable-background:new 0 0 264.6 264.6;" xml:space="preserve">
<style type="text/css">
	.st0{fill-rule:evenodd;clip-rule:evenodd;fill:#FFFFFF;}
</style>
<path class="st0" d="M10.7,209.7c80.3-0.2,160.7-0.3,241,0c4.8,0,8.7,4.5,8.7,10.2c0,15.2-5.5,44.7-34.9,44.7H36.8
	C7.5,264.6,2,235,2,219.9C2,214.3,5.9,209.7,10.7,209.7z M190.7,34.1c7.4,0,13.4,7,13.4,15.6s-6,15.6-13.4,15.6
	c-7.4,0-13.4-7-13.4-15.6S183.3,34.1,190.7,34.1z M73.9,35.2c7.4,0,13.4,7,13.4,15.6s-6,15.6-13.4,15.6c-7.4,0-13.4-7-13.4-15.6
	S66.5,35.2,73.9,35.2z M131.9,20.4c7.4,0,13.4,7,13.4,15.6s-6,15.6-13.4,15.6c-7.4,0-13.4-7-13.4-15.6S124.5,20.4,131.9,20.4z
	 M240.4,112H24.9C11.2,112,0,98.9,0,82.9C0,41.6,70.7,0.8,130,0C246.7-1.4,299.1,112,240.4,112z M259.9,156.1
	c0.4,0.7,0.6,1.5,0.6,2.3c0,0.6,0,1.1-0.1,1.7c0,0.6,0.1,1.1,0.1,1.7c0,0.8-0.2,1.6-0.6,2.3c-2,10.1-9.9,23.2-34.2,23.2H36.9
	c-24.4,0-32.2-13.1-34.2-23.2c-0.4-0.7-0.6-1.5-0.6-2.3c0-0.6,0-1.1,0.1-1.7c0-0.6-0.1-1.1-0.1-1.7c0-0.8,0.2-1.6,0.6-2.3
	c2-10.1,9.9-23.2,34.2-23.2h97.7l36,43.4l35.8-43.4h19.2C250.1,132.9,257.9,146,259.9,156.1z"/>
</svg>
