<svg width="264.6" height="264.6" xmlns="http://www.w3.org/2000/svg">
 <style type="text/css">.st0{fill-rule:evenodd;clip-rule:evenodd;fill:#FFFFFF;}
	.st1{fill:#FFFFFF;}</style>

 <g>
  <title>background</title>
  <rect fill="none" id="canvas_background" height="402" width="582" y="-1" x="-1"/>
 </g>
 <g>
  <title>Layer 1</title>
  <style transform="matrix(0.11111111773384952,0,0,0.11111111773384952,0,0) " type="text/css">.st0{fill:#FFFFFF;}</style>
  <g stroke="null" id="svg_12">
   <g stroke="null" transform="matrix(0.6923813841125632,0,0,0.6923813841125632,-761.9249245992067,-792.3709783481685) " id="svg_11">
    <g stroke="null" id="svg_10">
     <path stroke="null" id="svg_9" d="m1248.192081,1434.716569c51.2,0 92.9,-41.7 92.9,-92.9c0,-50.2 -87.1,-164.1 -90.8,-168.9l-2.1,-2.8l-2.1,2.8c-3.7,4.8 -90.8,118.7 -90.8,168.9c0,51.2 41.6,92.9 92.9,92.9z" class="st0"/>
    </g>
   </g>
  </g>
  <g stroke="null" id="svg_8">
   <g stroke="null" transform="matrix(0.6923813841125632,0,0,0.6923813841125632,-761.9249245992067,-792.3709783481685) " id="svg_5">
    <g stroke="null" id="svg_6">
     <path stroke="null" id="svg_7" d="m1324.739491,1492.488198c51.2,0 92.9,-41.7 92.9,-92.9c0,-50.2 -87.1,-164.1 -90.8,-168.9l-2.1,-2.8l-2.1,2.8c-3.7,4.8 -90.8,118.7 -90.8,168.9c0,51.2 41.6,92.9 92.9,92.9z" class="st0"/>
    </g>
   </g>
  </g>
 </g>
</svg>